<?xml version="1.0" encoding="UTF-8" standalone="no"?>
<svg
   xmlns:dc="http://purl.org/dc/elements/1.1/"
   xmlns:cc="http://creativecommons.org/ns#"
   xmlns:rdf="http://www.w3.org/1999/02/22-rdf-syntax-ns#"
   xmlns:svg="http://www.w3.org/2000/svg"
   xmlns="http://www.w3.org/2000/svg"
   xmlns:sodipodi="http://sodipodi.sourceforge.net/DTD/sodipodi-0.dtd"
   xmlns:inkscape="http://www.inkscape.org/namespaces/inkscape"
   width="45mm"
   height="60mm"
   viewBox="0 0 170.07874 226.77165"
   fill="none"
   version="1.1"
   id="svg13"
   sodipodi:docname="silk.svg"
   inkscape:version="1.0.1 (3bc2e813f5, 2020-09-07)">
  <metadata
     id="metadata17">
    <rdf:RDF>
      <cc:Work
         rdf:about="">
        <dc:format>image/svg+xml</dc:format>
        <dc:type
           rdf:resource="http://purl.org/dc/dcmitype/StillImage" />
        <dc:title></dc:title>
      </cc:Work>
    </rdf:RDF>
  </metadata>
  <sodipodi:namedview
     pagecolor="#ffffff"
     bordercolor="#666666"
     borderopacity="1"
     objecttolerance="10"
     gridtolerance="10"
     guidetolerance="10"
     inkscape:pageopacity="0"
     inkscape:pageshadow="2"
     inkscape:window-width="1366"
     inkscape:window-height="715"
     id="namedview15"
     showgrid="false"
     inkscape:zoom="1.0954372"
     inkscape:cx="26.027155"
     inkscape:cy="189.34785"
     inkscape:window-x="-8"
     inkscape:window-y="-8"
     inkscape:window-maximized="1"
     inkscape:current-layer="g6"
     units="mm" />
  <g
     clip-path="url(#clip0)"
     id="g6"
     style="fill:#000000"
     transform="scale(3.8654259,3.7795276)">
    <path
       fill-rule="evenodd"
       clip-rule="evenodd"
       d="m 17.8598,-5.36522 c 0.0795,-0.07953 0.0795,-0.20849 0,-0.28802 -0.0796,-0.07953 -0.2085,-0.07953 -0.288,0 L 0.426421,11.4921 c -0.079534,0.0795 -0.079534,0.2085 0,0.288 0.079534,0.0795 0.208485,0.0795 0.28802,0 z m 11.9333,3.93203 c 0.0796,-0.07953 0.0796,-0.20848 0,-0.28802 -0.0795,-0.07953 -0.2084,-0.07953 -0.288,0 l -4.1638,4.16384 c -0.0795,0.07954 -0.0795,0.20849 0,0.28802 0.0795,0.07954 0.2085,0.07954 0.288,0 z m 11.9334,2.74126 c 0.0795,-0.07954 0.0795,-0.20849 0,-0.28802 -0.0795,-0.079537 -0.2085,-0.079537 -0.288,0 l -4.1639,4.16384 c -0.0795,0.07953 -0.0795,0.20848 0,0.28802 0.0796,0.07953 0.2085,0.07953 0.2881,0 z M 20.4482,1.90798 c 0.0796,-0.07954 0.0796,-0.20849 0,-0.28802 -0.0795,-0.07954 -0.2084,-0.07954 -0.288,0 L 8.61951,13.1607 c -0.07954,0.0795 -0.07954,0.2085 0,0.288 0.07953,0.0795 0.20848,0.0795 0.28802,0 z m 8.1765,3.56393 c 0.0795,-0.07954 0.0795,-0.20849 0,-0.28802 -0.0796,-0.07954 -0.2085,-0.07954 -0.2881,0 L 16.7959,16.7246 c -0.0795,0.0795 -0.0795,0.2085 0,0.288 0.0796,0.0795 0.2085,0.0795 0.2881,0 z m 6.9842,1.71786 c 0.0796,-0.07954 0.0796,-0.20849 0,-0.28802 -0.0795,-0.07954 -0.2084,-0.07954 -0.288,0 l -8.1377,8.13775 c -0.0795,0.0795 -0.0795,0.2085 0,0.288 0.0795,0.0795 0.2085,0.0795 0.288,0 z m 8.5467,3.25873 c 0.0795,-0.0795 0.0795,-0.2084 0,-0.288 -0.0796,-0.0795 -0.2085,-0.0795 -0.2881,0 l -9.0992,9.0993 c -0.0795,0.0795 -0.0795,0.2084 0,0.288 0.0795,0.0795 0.2085,0.0795 0.288,0 z M 7.21496,11.3667 c 0.07953,-0.0795 0.07953,-0.2084 0,-0.288 -0.07954,-0.0795 -0.20849,-0.0795 -0.28802,0 L 2.7631,15.2426 c -0.07953,0.0795 -0.07953,0.2084 0,0.288 0.07954,0.0795 0.20849,0.0795 0.28802,0 z m 5.70264,3.0899 c 0.0795,-0.0795 0.0795,-0.2084 0,-0.288 -0.0796,-0.0795 -0.2085,-0.0795 -0.2881,0 l -6.65771,6.6578 c -0.07954,0.0795 -0.07954,0.2085 0,0.288 0.07953,0.0795 0.20848,0.0795 0.28802,0 z m 20.0928,2.1403 c 0.0795,-0.0796 0.0795,-0.2085 0,-0.2881 -0.0796,-0.0795 -0.2085,-0.0795 -0.2881,0 l -5.7327,5.7328 c 0.0565,-0.2252 0.1261,-0.4199 0.1857,-0.5868 0.04,-0.1121 0.0756,-0.2116 0.0997,-0.2994 0.1306,-0.4757 -0.1492,-0.9673 -0.6249,-1.0979 -0.4748,-0.1304 -0.9653,0.148 -1.0972,0.622 l 3e-4,-0.0011 -2e-4,6e-4 -0.0012,0.0033 -0.0061,0.0174 -0.0143,0.0396 -0.0144,0.0395 -6e-4,0.0014 c -0.0161,0.0437 -0.0367,0.0997 -0.0574,0.158 -0.0584,0.1642 -0.1306,0.3814 -0.1949,0.6398 -0.1285,0.5161 -0.2272,1.2027 -0.1279,1.9896 0.0169,0.134 -0.0229,0.3267 -0.1418,0.5657 0.3873,0.364 0.723,0.7856 0.9935,1.2542 0.052,0.0901 0.1013,0.1814 0.1479,0.2738 0.4661,-0.6201 0.8838,-1.4387 0.7729,-2.3174 -0.0282,-0.2231 -0.0335,-0.4301 -0.0234,-0.622 z m 8.4628,3.8651 c 0.0796,-0.0795 0.0796,-0.2084 0,-0.288 -0.0795,-0.0795 -0.2084,-0.0795 -0.288,0 l -9.251,9.2511 c -0.0796,0.0795 -0.0796,0.2085 0,0.288 0.0262,0.0262 0.0577,0.0438 0.0912,0.0527 -0.0809,0.1416 -0.124,0.307 -0.1163,0.482 0.0121,0.2714 -0.0553,0.6663 -0.2265,1.0109 -0.1686,0.3394 -0.3883,0.5389 -0.632,0.6134 -0.481,0.1469 -0.8584,0.2015 -1.2526,0.1467 -0.3998,-0.0556 -0.8983,-0.2355 -1.5889,-0.691 -0.1269,-0.0837 -0.257,-0.156 -0.3893,-0.2183 0.151,0.3144 0.2885,0.6289 0.4057,0.9417 0.1894,0.5049 0.326,1.0053 0.3817,1.4932 0.3203,0.12 0.6333,0.2006 0.9449,0.2439 0.7465,0.1038 1.4028,-0.0189 2.0206,-0.2076 0.8551,-0.2613 1.399,-0.9012 1.7099,-1.5271 0.3084,-0.6207 0.4366,-1.317 0.4114,-1.885 -0.0219,-0.4929 -0.4392,-0.8747 -0.932,-0.8528 -0.0567,0.0025 -0.1119,0.0102 -0.1652,0.0227 z M 11.185,23.1852 c 0.0796,-0.0795 0.0796,-0.2085 0,-0.288 -0.0795,-0.0796 -0.2084,-0.0796 -0.288,0 l -4.93553,4.9355 v -3.0434 c 0,-1.0166 -0.82415,-1.8407 -1.84078,-1.8407 h -4.2030078 v 1.4882 H 4.12069 c 0.19467,0 0.35249,0.1579 0.35249,0.3525 v 3.5111 c 0,0.1947 -0.15782,0.3525 -0.35249,0.3525 h -4.2030078 v 1.4883 H 4.12069 c 0.97913,0 1.77971,-0.7645 1.83744,-1.7291 z m 34.9503,4.228 c 0.0796,-0.0795 0.0796,-0.2084 0,-0.288 -0.0795,-0.0795 -0.2085,-0.0795 -0.288,0 l -4.4182,4.4182 h -0.9099 c -1.0166,0 -1.8407,0.8241 -1.8407,1.8408 v 3.511 c 0,1.0167 0.8241,1.8408 1.8407,1.8408 h 4.2031 v -1.4883 h -4.2031 c -0.1946,0 -0.3524,-0.1578 -0.3524,-0.3525 v -3.511 c 0,-0.1947 0.1578,-0.3525 0.3524,-0.3525 h 4.2031 v -1.4883 h -2.7171 z m -9.9724,5.3717 c 0.0795,-0.0796 0.0795,-0.2085 0,-0.2881 -0.0796,-0.0795 -0.2085,-0.0795 -0.2881,0 l -3.488,3.4881 c -0.0604,-0.1562 -0.1653,-0.2972 -0.3114,-0.4023 -1.0254,-0.7377 -2.061,-0.5112 -2.7959,-0.2491 -0.1835,0.0654 -0.3614,0.1378 -0.5204,0.203 l -0.0481,0.0197 -0.0011,5e-4 -0.0962,0.0394 -0.0516,0.021 c -0.0495,0.3243 -0.1238,0.6404 -0.2209,0.9464 -0.1193,0.3763 -0.273,0.7374 -0.4574,1.0795 0.3945,-0.027 0.7591,-0.1441 1.0545,-0.2545 0.1538,-0.0574 0.3086,-0.121 0.4491,-0.1787 l 5e-4,-2e-4 h 1e-4 l 10e-5,-1e-4 0.0489,-0.0201 c 0.1593,-0.0653 0.3026,-0.1232 0.4427,-0.1732 0.5594,-0.1995 0.8555,-0.1969 1.1524,0.0167 0.4004,0.2881 0.9587,0.197 1.2468,-0.2035 0.0674,-0.0936 0.114,-0.1959 0.1408,-0.3014 z M 24.4286,25.2545 c -0.0137,-0.0573 -0.0281,-0.1146 -0.0435,-0.1719 l -0.0134,-0.0492 c -0.077,-0.2783 -0.1719,-0.547 -0.283,-0.8051 0.3012,0.2179 0.5771,0.4702 0.822,0.7523 0.0391,0.0451 0.0775,0.0909 0.115,0.1375 0.1561,0.1939 0.2981,0.4007 0.4241,0.619 0.2557,0.4429 0.4376,0.9189 0.5431,1.4097 0.063,0.293 0.1186,0.5898 0.1743,0.887 v 2e-4 10e-5 l 10e-5,10e-5 v 2e-4 10e-5 2e-4 l 10e-5,10e-5 v 10e-5 2e-4 l 10e-5,10e-5 v 10e-5 2e-4 10e-5 l 10e-5,2e-4 v 1e-4 10e-5 l 10e-5,2e-4 v 10e-5 2e-4 c 0.0173,0.0922 0.0346,0.1844 0.0521,0.2766 l -0.1713,-0.281 -0.0116,-0.019 C 25.4801,27.1002 24.9187,26.179 24.4286,25.2545 Z m 3.4607,10.5888 v 0 c 0.081,-0.3814 0.1238,-0.777 0.1241,-1.1824 -2e-4,-0.0393 -8e-4,-0.0784 -0.0019,-0.1174 -0.0013,-0.0505 -0.0033,-0.1008 -0.0059,-0.1509 l 9e-4,-0.0194 -10e-4,-0.0194 c 0.0051,-0.1076 0.0077,-0.2158 0.0079,-0.3247 -0.0073,-0.8814 -0.373,-1.8727 -0.9158,-2.939 -0.0312,-0.0612 -0.0629,-0.1227 -0.0952,-0.1844 L 26.9983,30.898 c -0.4279,-0.8168 -0.9517,-1.6757 -1.4919,-2.5612 v -10e-5 l -10e-5,-10e-5 v -10e-5 l -10e-5,-10e-5 -5e-4,-8e-4 -10e-5,-10e-5 c -0.3024,-0.4959 -0.61,-1.0002 -0.9087,-1.5101 -0.2676,-0.4569 -0.528,-0.9183 -0.7714,-1.3823 -0.486,-0.9271 -0.9036,-1.8647 -1.1727,-2.7974 -0.0224,-0.0778 -0.0438,-0.1556 -0.0642,-0.2333 l -0.0061,-0.0236 c -0.1021,-0.3945 -0.1762,-0.7879 -0.2163,-1.179 -0.0225,-0.2194 -0.0343,-0.4381 -0.0343,-0.6558 l -10e-5,-0.0389 -10e-5,0.0389 h 2e-4 c 0,0.2186 -0.0121,0.4383 -0.0351,0.6589 -0.0494,0.4743 -0.1495,0.9526 -0.2891,1.4328 -0.5543,1.9061 -1.732,3.8412 -2.8423,5.6657 l -1e-4,10e-5 -2e-4,3e-4 c -0.6515,1.0706 -1.2799,2.103 -1.7456,3.0693 -0.4614,0.9575 -0.763,1.85 -0.7692,2.65 l -10e-5,-0.015 c 10e-5,-0.1289 0.0079,-0.2603 0.0228,-0.3939 h -10e-5 c -0.0149,0.1339 -0.0227,0.2656 -0.0227,0.3948 v 0.0321 0.0059 c 6e-4,0.1001 0.0032,0.1998 0.0079,0.2988 l -9e-4,0.0173 v 7e-4 l -3e-4,0.0055 c -0.0045,0.0925 -0.0067,0.1855 -0.0067,0.2791 l 10e-5,0.0291 v 0.0082 c 0.02,3.1208 2.556,5.6444 5.6815,5.6444 2.0618,0 3.8672,-1.0983 4.8629,-2.7417 0.0732,-0.1208 0.142,-0.2446 0.2063,-0.3711 0.0385,-0.0759 0.0754,-0.1528 0.1106,-0.2306 0.0213,-0.0472 0.042,-0.0947 0.0621,-0.1426 0.1351,-0.3223 0.2414,-0.6596 0.3156,-1.0088 z m -11.239,-1.1884 c 0,-0.0948 0.0023,-0.1891 0.0069,-0.2828 l 0.001,0.0205 -7e-4,0.0131 c -0.0043,0.0861 -0.0067,0.1726 -0.0072,0.2597 z m 1.0502,-3.8682 c -0.0989,0.1874 -0.1928,0.3727 -0.281,0.5556 -0.2,0.415 -0.3699,0.8177 -0.4988,1.2061 h -10e-5 c 0.1074,-0.3237 0.2434,-0.6574 0.4015,-0.9999 0.1152,-0.2495 0.2421,-0.5036 0.3783,-0.7618 z m 0.542,8.6664 c -0.4544,-0.3878 -0.8531,-0.839 -1.1823,-1.34 -0.1645,0.1401 -0.3202,0.293 -0.4562,0.4575 -0.2493,0.302 -0.5074,0.7356 -0.5074,1.2626 0,0.4934 0.3999,0.8933 0.8932,0.8933 0.485,0 0.8797,-0.3865 0.893,-0.8683 0.0059,-0.0149 0.0281,-0.0643 0.0987,-0.1498 0.0653,-0.0791 0.1531,-0.1655 0.261,-0.2553 z m -2.1991,-5.7776 c -0.0039,0.0462 -0.007,0.0923 -0.0094,0.1383 -0.0035,0.068 -0.0052,0.1357 -0.0052,0.2032 0,0.1123 0.0024,0.2241 0.0072,0.3353 l -4e-4,0.0092 -6e-4,0.012 c -0.0041,0.0939 -0.0062,0.1882 -0.0062,0.283 0,0.2765 0.0178,0.5489 0.0523,0.8161 -0.5624,0.0835 -0.8616,0.2185 -0.9665,0.3206 -0.1634,0.1591 -0.2994,0.4389 -0.3883,0.7948 -0.0854,0.3423 -0.1024,0.6544 -0.1024,0.7643 0,0.4934 -0.3999,0.8933 -0.8932,0.8933 -0.4934,0 -0.8933,-0.3999 -0.8933,-0.8933 0,-0.2258 0.0282,-0.6868 0.1555,-1.197 0.124,-0.4964 0.3683,-1.1484 0.8754,-1.6421 0.5599,-0.5453 1.4115,-0.7379 2.0724,-0.8249 0.0342,-0.0045 0.0684,-0.0087 0.1027,-0.0128 z m 0.3364,-1.4662 c 0.1696,-0.4812 0.3896,-0.9674 0.6357,-1.4514 -0.8737,0.013 -1.8562,0.2343 -2.6728,1.0092 -0.2814,0.267 -0.6913,0.3594 -1.0968,0.2894 -0.1992,-0.0344 -0.3606,-0.1032 -0.466,-0.1743 -0.0688,-0.0465 -0.0942,-0.0795 -0.1005,-0.0884 -0.1521,-0.4619 -0.6472,-0.7182 -1.1134,-0.5734 -0.4711,0.1464 -0.7344,0.6469 -0.5881,1.1181 0.1435,0.4619 0.4703,0.8003 0.8027,1.0246 0.3394,0.229 0.7443,0.382 1.1614,0.454 0.8272,0.1427 1.8502,-0.0138 2.6304,-0.754 0.1963,-0.1863 0.4189,-0.3132 0.6613,-0.3947 0.043,-0.1524 0.092,-0.3055 0.1461,-0.4591 z m 2.0353,-3.9541 h 10e-5 l 0.0414,-0.2259 -2e-4,5e-4 z m 0.2145,-1.1272 c -0.0622,0.2951 -0.1169,0.5939 -0.1715,0.8933 0.0547,-0.2994 0.1094,-0.5982 0.1715,-0.8933 0.1049,-0.4979 0.2882,-0.9808 0.5473,-1.4297 0.1261,-0.2183 0.2681,-0.4251 0.4242,-0.619 0.0375,-0.0466 0.0759,-0.0925 0.115,-0.1375 0.1083,-0.1249 0.2228,-0.2438 0.3428,-0.3566 v -10e-5 c -0.12,0.1128 -0.2345,0.2318 -0.3429,0.3567 -0.0391,0.045 -0.0774,0.0909 -0.1149,0.1375 -0.1562,0.1939 -0.2982,0.4006 -0.4242,0.6189 -0.2592,0.449 -0.4425,0.9319 -0.5473,1.4298 z m 0.3292,1.4841 v 0 l 0.2063,-0.3391 2e-4,-3e-4 1e-4,-2e-4 c 0.3759,-0.6176 0.7595,-1.2479 1.124,-1.8855 v -10e-5 c -0.3646,0.6376 -0.7482,1.2679 -1.1241,1.8856 v 0 l -2e-4,4e-4 z m -0.3201,-3.2246 c 0.3301,-0.5717 0.7571,-1.0733 1.2563,-1.4858 -0.0619,-0.2229 -0.1318,-0.442 -0.2104,-0.6537 -0.3931,-1.059 -1.1798,-2.3728 -2.6665,-2.4199 -0.4931,-0.0155 -0.9055,0.3715 -0.9211,0.8646 -0.0156,0.4931 0.3715,0.9055 0.8646,0.9211 0.2826,0.009 0.684,0.275 1.0481,1.2558 0.2131,0.5742 0.3529,1.2491 0.4315,1.8927 0.0608,-0.127 0.1266,-0.252 0.1975,-0.3748 z m -0.4411,0.9716 c -0.0718,0.2103 -0.1305,0.4243 -0.1761,0.6408 -0.0645,0.3062 -0.1211,0.6156 -0.176,0.916 l -0.0128,0.0703 -0.0297,0.1617 c -0.0657,0.0136 -0.1275,0.0367 -0.1859,0.0681 -2.0562,1.1032 -4.1238,0.0523 -5.2101,-0.8714 -0.3758,-0.3196 -0.4214,-0.8834 -0.1018,-1.2592 0.3196,-0.3758 0.8834,-0.4214 1.2592,-0.1018 0.8879,0.755 2.1353,1.2337 3.208,0.6581 0.4884,-0.262 0.9744,-0.3293 1.4252,-0.2826 z m 9.4907,4.4833 c -0.0443,-0.088 -0.0895,-0.1759 -0.1354,-0.2637 -0.2293,-0.4382 -0.3873,-0.9186 -0.5149,-1.4378 0.574,-0.0708 0.9633,-0.2493 1.1658,-0.4927 0.3364,-0.4042 0.4822,-0.9801 0.4802,-1.6307 -0.002,-0.6453 -0.1505,-1.2528 -0.2762,-1.5884 -0.173,-0.462 0.0613,-0.9768 0.5234,-1.1498 0.462,-0.173 0.9768,0.0613 1.1498,0.5233 0.1909,0.51 0.3869,1.3276 0.3896,2.2094 0.0026,0.8765 -0.1868,1.9296 -0.8934,2.7789 -0.4988,0.5995 -1.1929,0.9055 -1.8889,1.0515 z m -7.1505,-6.6139 c -0.1176,0.2732 -0.217,0.5582 -0.2963,0.8541 -0.0238,0.0888 -0.0455,0.1777 -0.0653,0.2666 -0.4736,0.8834 -1.0096,1.7648 -1.5417,2.6391 l -0.0104,0.0171 c -0.0746,0.1226 -0.1492,0.2452 -0.2236,0.3677 l 0.02,-0.108 0.036,-0.1962 v -4e-4 l 1e-4,-4e-4 v -10e-5 -10e-5 l 10e-5,-2e-4 v -10e-5 -10e-5 l 10e-5,-2e-4 v -10e-5 -2e-4 -10e-5 l 10e-5,-2e-4 v -10e-5 -2e-4 l 10e-5,-1e-4 v -2e-4 -10e-5 -2e-4 l 10e-5,-10e-5 v -2e-4 c 0.055,-0.3012 0.11,-0.6018 0.1725,-0.8987 0.1049,-0.4979 0.2882,-0.9808 0.5473,-1.4297 0.1261,-0.2183 0.2681,-0.4251 0.4242,-0.619 0.0375,-0.0466 0.0759,-0.0924 0.115,-0.1375 0.2448,-0.282 0.5207,-0.5342 0.8217,-0.7521 z M 18.461,34.997 c 0.1501,0.7102 0.3634,0.9644 0.6372,1.2904 0.162,0.193 0.3452,0.4112 0.549,0.7641 0.5479,0.9491 0.5675,1.2935 0.3446,1.4221 -0.2228,0.1287 -0.6036,-0.0071 -1.1515,-0.9563 -0.548,-0.9491 -0.6021,-2.3917 -0.3793,-2.5203 z m 7.7192,0 c -0.15,0.7102 -0.3634,0.9644 -0.6371,1.2904 -0.1621,0.193 -0.3453,0.4112 -0.549,0.7641 -0.548,0.9491 -0.5675,1.2935 -0.3447,1.4221 0.2228,0.1287 0.6036,-0.0071 1.1516,-0.9563 0.5479,-0.9491 0.602,-2.3917 0.3792,-2.5203 z m -3.4966,4.3743 c -0.1396,0.2984 -0.564,0.2984 -0.7036,0 l -0.6202,-1.3254 c -0.1567,-0.3347 0.0877,-0.7188 0.4573,-0.7188 h 1.0294 c 0.3696,0 0.6139,0.3841 0.4573,0.7188 z M 3.73189,49.3716 H -0.0857657 V 47.8833 H 4.32743 V 47.3662 H 3.87192 c -0.09085,0 -0.16449,-0.0736 -0.16449,-0.1645 0,-0.0908 0.07364,-0.1645 0.16449,-0.1645 h 1.20673 c 0.09085,0 0.16449,0.0737 0.16449,0.1645 10e-6,0.0909 -0.07364,0.1645 -0.16449,0.1645 H 4.65642 v 0.5391 c 0.32382,0.0806 0.56376,0.3733 0.56376,0.7221 v 1.5058 H 4.48279 3.73189 Z m 0.7509,0.7616 c 2e-4,0.2673 0.1442,0.5724 0.26203,0.822 0.08165,0.1729 0.15073,0.3193 0.15073,0.4081 0,0.217 -0.1848,0.3929 -0.41276,0.3929 -0.22797,0 -0.41277,-0.1759 -0.41277,-0.3929 0,-0.0892 0.06968,-0.2375 0.15177,-0.4122 0.11764,-0.2505 0.26079,-0.5552 0.261,-0.8179 z m 9.22261,2.1384 h 0.4758 c 0.2857,0 0.5173,-0.2316 0.5173,-0.5173 0,-0.2856 -0.2316,-0.5172 -0.5173,-0.5172 h -0.1643 v -7.9108 c 0,-1.0167 -0.8241,-1.8408 -1.8408,-1.8408 H -0.083981 c -0.410979,0 -0.744144,0.3331 -0.744144,0.7441 0,0.411 0.333165,0.7442 0.744144,0.7442 H 12.1761 c 0.1947,0 0.3525,0.1578 0.3525,0.3525 v 7.9108 h -0.1447 c -0.2857,0 -0.5173,0.2316 -0.5173,0.5172 0,0.2857 0.2316,0.5173 0.5173,0.5173 h 0.5172 l 0.1217,1.0496 c 0.0625,0.5399 0.0318,1.0865 -0.0909,1.6159 l -0.034,0.1465 c -0.1683,0.7265 -0.1683,1.4818 0,2.2083 0.1409,0.6078 0.1409,1.2398 0,1.8476 l -0.235,1.014 c -0.0498,0.2149 0.0841,0.4295 0.299,0.4794 0.215,0.0498 0.4296,-0.0841 0.4794,-0.299 l 0.235,-1.014 c 0.1683,-0.7265 0.1683,-1.4819 0,-2.2084 -0.1409,-0.6078 -0.1409,-1.2397 0,-1.8475 l 0.0339,-0.1465 c 0.1434,-0.6187 0.1793,-1.2574 0.1062,-1.8883 z m -1.3215,-0.8935 h 0.1447 v 0.0014 h -0.1414 c -0.2078,0 -0.3762,0.1684 -0.3762,0.3762 0,0.1576 0.0969,0.2926 0.2345,0.3486 -0.1393,-0.0551 -0.2379,-0.1911 -0.2379,-0.35 0,-0.2078 0.1685,-0.3762 0.3763,-0.3762 z m 1.633,0.0014 v -0.0014 h 0.1643 c 0.0502,0 0.098,0.0098 0.1418,0.0276 -0.0428,-0.0169 -0.0895,-0.0262 -0.1384,-0.0262 z M 5.46813e-4,33.0317 H -0.0823178 V 31.5434 H 5.46813e-4 C 1.01718,31.5434 1.84132,32.3675 1.84132,33.3842 v 3.511 c 0,1.0167 -0.82414,1.8408 -1.840773068,1.8408 H -0.0823178 V 37.2477 H 5.46932e-4 C 0.195221,37.2477 0.353036,37.0899 0.353036,36.8952 v -3.511 c 0,-0.1947 -0.157815,-0.3525 -0.352489187,-0.3525 z M 31.9414,40.6481 H 44.7223 V 39.1598 H 31.9414 c -1.0167,0 -1.8408,0.8242 -1.8408,1.8408 v 8.8922 c 0,1.0167 0.8241,1.8408 1.8408,1.8408 H 44.7223 V 50.2453 H 31.9414 c -0.1947,0 -0.3525,-0.1578 -0.3525,-0.3525 v -8.8922 c 0,-0.1947 0.1578,-0.3525 0.3525,-0.3525 z m 12.7809,2.3537 h -7.2418 c -0.1947,0 -0.3525,0.1578 -0.3525,0.3525 v 0.7279 c 0,0.1947 0.1578,0.3525 0.3525,0.3525 h 1.9759 c 1.0166,0 1.8408,0.8242 1.8408,1.8408 V 47.54 c 0,0.1946 0.1578,0.3525 0.3525,0.3525 h 1.3316 v -0.7599 h 0.6809 v 0.7599 h 1.0601 v 1.4882 h -3.0726 c -1.0167,0 -1.8408,-0.8241 -1.8408,-1.8407 v -1.2645 c 0,-0.1947 -0.1578,-0.3525 -0.3525,-0.3525 h -1.9759 c -1.0167,0 -1.8408,-0.8241 -1.8408,-1.8408 v -0.7279 c 0,-1.0166 0.8241,-1.8408 1.8408,-1.8408 h 7.2418 z m -1.7155,2.2662 c -0.0339,-0.0339 -0.0889,-0.0339 -0.1228,0 -0.0339,0.0339 -0.0339,0.0889 0,0.1228 l 0.3764,0.3764 c 0.0162,0.0162 0.0383,0.0254 0.0614,0.0254 0.0061,0 0.0121,-7e-4 0.018,-0.0019 l 0.0028,-6e-4 c 0.0152,-0.0038 0.0293,-0.0117 0.0406,-0.023 l 0.3713,-0.3712 0.005,-0.0051 c 0.0339,-0.0339 0.0339,-0.0889 0,-0.1228 -0.0339,-0.0339 -0.0889,-0.0339 -0.1228,0 l -0.3149,0.3149 z m -0.207,0.3339 c 0.0118,-0.0595 0.0336,-0.1161 0.0642,-0.1677 l 0.3647,0.3646 c 0.0247,0.0247 0.0582,0.0386 0.0931,0.0386 0.0349,0 0.0684,-0.0139 0.0931,-0.0386 l 0.3646,-0.3646 c 0.0306,0.0516 0.0524,0.1083 0.0643,0.1677 0.0205,0.1032 0.0099,0.2102 -0.0303,0.3075 -0.0403,0.0972 -0.1085,0.1804 -0.196,0.2388 -0.0649,0.0433 -0.1381,0.0717 -0.2145,0.0835 -0.0268,0.0041 -0.0539,0.0062 -0.0812,0.0062 -0.0165,0 -0.0329,-7e-4 -0.0491,-0.0022 L 43.261,46.2344 c -0.0069,-7e-4 -0.0137,-0.0017 -0.0205,-0.0027 -0.0764,-0.0118 -0.1496,-0.0402 -0.2144,-0.0835 -0.0875,-0.0584 -0.1557,-0.1416 -0.196,-0.2388 -0.0403,-0.0973 -0.0508,-0.2043 -0.0303,-0.3075 z m 0.4183,1.1859 C 43.16,46.7427 43.0882,46.7179 43.0139,46.7179 H 43.001 c -0.0232,0 -0.042,0.0188 -0.042,0.042 0,0.0232 0.0188,0.0421 0.042,0.0421 h 0.0129 c 0.0661,0 0.1295,0.0262 0.1763,0.073 l 0.0279,0.0279 z m 0.1849,-0.5051 v 0.5242 0.1185 0.0556 h 0.2895 c 0.0344,0 0.0622,0.0278 0.0622,0.0621 0,0.0344 -0.0278,0.0622 -0.0622,0.0622 h -0.7414 c -0.0344,0 -0.0622,-0.0278 -0.0622,-0.0622 0,-0.0343 0.0278,-0.0621 0.0622,-0.0621 h 0.2894 v -0.6983 c 0.0268,0.0037 0.054,0.0057 0.0813,0.0057 0.0273,0 0.0544,-0.002 0.0812,-0.0057 z m 0.0224,0.6203 0.028,-0.028 c 0.0467,-0.0468 0.1102,-0.073 0.1763,-0.073 h 0.0128 c 0.0233,0 0.0421,-0.0189 0.0421,-0.0421 0,-0.0232 -0.0188,-0.042 -0.0421,-0.042 h -0.0128 c -0.0744,0 -0.1461,0.0249 -0.2043,0.0699 z"
       fill="white"
       id="path4"
       style="fill:#000000;stroke:none;stroke-width:0.29664794;stroke-miterlimit:4;stroke-dasharray:none" />
  </g>
  <defs
     id="defs11">
    <clipPath
       id="clip0">
      <rect
         width="44"
         height="60"
         fill="#ffffff"
         id="rect8"
         x="0"
         y="0" />
    </clipPath>
  </defs>
</svg>
