<?xml version="1.0" encoding="UTF-8" standalone="no"?>
<svg
   xmlns:dc="http://purl.org/dc/elements/1.1/"
   xmlns:cc="http://creativecommons.org/ns#"
   xmlns:rdf="http://www.w3.org/1999/02/22-rdf-syntax-ns#"
   xmlns:svg="http://www.w3.org/2000/svg"
   xmlns="http://www.w3.org/2000/svg"
   xmlns:sodipodi="http://sodipodi.sourceforge.net/DTD/sodipodi-0.dtd"
   xmlns:inkscape="http://www.inkscape.org/namespaces/inkscape"
   width="40.005001mm"
   height="61.425678mm"
   viewBox="0 0 40.005001 61.425678"
   version="1.1"
   id="svg8"
   inkscape:version="1.0.1 (3bc2e813f5, 2020-09-07)"
   sodipodi:docname="pattern.svg"
   inkscape:export-filename="C:\Users\julia\Desktop\hydrabot pcb.png"
   inkscape:export-xdpi="96"
   inkscape:export-ydpi="96">
  <defs
     id="defs2">
    <clipPath
       clipPathUnits="userSpaceOnUse"
       id="clipPath26">
      <path
         d="M 0,0 V 27369.1 H 19341 V 0 Z m 9249.1201,10626.2 v 608.5 H 10087.8 v -608.5 z"
         clip-rule="evenodd"
         id="path24" />
    </clipPath>
    <clipPath
       clipPathUnits="userSpaceOnUse"
       id="clipPath38">
      <path
         d="M 320.95999,435.67999 V 667.84003 H 472.16 V 435.67999 Z m 58.4,0.16001 v 24.95999 h 34.40002 V 435.84 Z"
         clip-rule="evenodd"
         id="path36" />
    </clipPath>
    <clipPath
       clipPathUnits="userSpaceOnUse"
       id="clipPath774">
      <path
         d="M 0,-0.32 H 1.28 V 0.64 H 0 Z"
         clip-rule="evenodd"
         id="path772" />
    </clipPath>
    <clipPath
       clipPathUnits="userSpaceOnUse"
       id="clipPath784">
      <path
         d="M -0.32,-0.32 H 1.6 v 1.28 h -1.92 z"
         clip-rule="evenodd"
         id="path782" />
    </clipPath>
    <clipPath
       clipPathUnits="userSpaceOnUse"
       id="clipPath794">
      <path
         d="M 320.95999,435.67999 V 667.84003 H 472.16 V 435.67999 Z m 58.4,0.16001 v 24.95999 h 34.40002 V 435.84 Z"
         clip-rule="evenodd"
         id="path792" />
    </clipPath>
    <clipPath
       clipPathUnits="userSpaceOnUse"
       id="clipPath4314">
      <path
         d="M 320.95999,667.35998 H 472.16 v 0.48005 H 320.95999 Z"
         clip-rule="evenodd"
         id="path4312" />
    </clipPath>
    <clipPath
       clipPathUnits="userSpaceOnUse"
       id="clipPath4324">
      <path
         d="M 471.67999,440.79999 H 472.16 v 227.04004 h -0.48001 z"
         clip-rule="evenodd"
         id="path4322" />
    </clipPath>
    <clipPath
       clipPathUnits="userSpaceOnUse"
       id="clipPath4334">
      <path
         d="M 320.95999,435.67999 V 667.84003 H 472.16 V 435.67999 Z m 58.4,0.16001 v 24.95999 h 34.40002 V 435.84 Z"
         clip-rule="evenodd"
         id="path4332" />
    </clipPath>
    <clipPath
       clipPathUnits="userSpaceOnUse"
       id="clipPath4344">
      <path
         d="m 320.95999,440.79999 h 0.64002 v 227.04004 h -0.64002 z"
         clip-rule="evenodd"
         id="path4342" />
    </clipPath>
    <clipPath
       clipPathUnits="userSpaceOnUse"
       id="clipPath4354">
      <path
         d="m 379.35999,435.84 h 34.56002 v 25.11999 h -34.56002 z"
         clip-rule="evenodd"
         id="path4352" />
    </clipPath>
  </defs>
  <sodipodi:namedview
     id="base"
     pagecolor="#ffffff"
     bordercolor="#666666"
     borderopacity="1.0"
     inkscape:pageopacity="0.0"
     inkscape:pageshadow="2"
     inkscape:zoom="0.98037155"
     inkscape:cx="-36.636073"
     inkscape:cy="157.4568"
     inkscape:document-units="mm"
     inkscape:current-layer="layer1"
     inkscape:document-rotation="0"
     showgrid="false"
     inkscape:window-width="1350"
     inkscape:window-height="729"
     inkscape:window-x="0"
     inkscape:window-y="0"
     inkscape:window-maximized="0" />
  <metadata
     id="metadata5">
    <rdf:RDF>
      <cc:Work
         rdf:about="">
        <dc:format>image/svg+xml</dc:format>
        <dc:type
           rdf:resource="http://purl.org/dc/dcmitype/StillImage" />
        <dc:title></dc:title>
      </cc:Work>
    </rdf:RDF>
  </metadata>
  <g
     inkscape:label="Layer 1"
     inkscape:groupmode="layer"
     id="layer1"
     transform="translate(-134.94975,-20.374526)">
    <path
       style="fill:#000000;stroke-width:0.264583"
       d="m 169.71388,121.45122 c -0.23999,-0.15073 -0.45692,-0.3423 -0.64429,-0.56091 -0.18738,-0.21861 -0.3452,-0.46425 -0.46697,-0.72313 -0.12177,-0.25888 -0.2075,-0.531 -0.25068,-0.80256 -0.0432,-0.27155 -0.0438,-0.54254 0.005,-0.79917 0.0189,-0.10055 0.0564,-0.2471 0.10769,-0.42582 0.0513,-0.17871 0.11661,-0.38959 0.19131,-0.61881 0.0747,-0.22921 0.15884,-0.47676 0.2479,-0.72881 0.0891,-0.25205 0.18303,-0.50861 0.27742,-0.75583 0.124,-0.3248 0.22881,-0.63032 0.3162,-0.92595 0.0874,-0.29562 0.15736,-0.58133 0.2117,-0.86651 0.0543,-0.28517 0.0931,-0.5698 0.11791,-0.86325 0.0249,-0.29345 0.0359,-0.59571 0.0348,-0.91616 -0.002,-0.53502 -0.034,-1.01145 -0.10783,-1.45596 -0.0738,-0.44451 -0.18911,-0.8571 -0.35693,-1.26445 -0.16781,-0.40735 -0.38813,-0.80945 -0.67194,-1.23297 -0.28381,-0.42353 -0.63112,-0.86848 -1.0529,-1.36153 -0.28662,-0.33504 -0.5573,-0.7042 -0.80209,-1.08642 -0.2448,-0.38223 -0.46371,-0.77752 -0.6468,-1.16485 -0.18308,-0.38733 -0.33034,-0.76669 -0.43183,-1.11705 -0.10148,-0.35035 -0.1572,-0.67171 -0.1572,-0.94302 0,-0.16015 -0.0245,-0.27834 -0.0949,-0.35284 -0.0704,-0.0745 -0.18673,-0.10535 -0.37046,-0.0908 -0.18373,0.0145 -0.43486,0.0745 -0.77485,0.18143 -0.33999,0.10697 -0.76884,0.26102 -1.30801,0.46384 -0.79173,0.29782 -1.59442,0.63874 -2.37592,1.00466 -0.7815,0.36593 -1.5418,0.75686 -2.24876,1.1547 -0.70696,0.39784 -1.36057,0.80259 -1.92867,1.19616 -0.56811,0.39357 -1.05071,0.77596 -1.41565,1.12906 -0.33698,0.32605 -0.59228,0.57579 -0.78569,0.78931 -0.19341,0.21352 -0.32492,0.39081 -0.4143,0.57194 -0.0894,0.18114 -0.13666,0.36611 -0.16158,0.595 -0.0249,0.22888 -0.0275,0.50168 -0.0275,0.85846 0,0.44457 -0.0385,0.83629 -0.11899,1.18065 -0.0805,0.34436 -0.20314,0.64136 -0.37143,0.89647 -0.1683,0.25511 -0.38229,0.46834 -0.64558,0.64517 -0.2633,0.17683 -0.5759,0.31727 -0.94143,0.42678 -0.32959,0.0987 -0.66584,0.13712 -0.99423,0.12095 -0.3284,-0.0162 -0.64893,-0.0869 -0.94709,-0.20636 -0.29815,-0.11946 -0.57392,-0.28766 -0.81279,-0.49876 -0.23887,-0.21111 -0.44084,-0.46513 -0.59138,-0.75625 -0.17086,-0.33041 -0.29195,-0.74203 -0.36472,-1.2015 -0.0728,-0.45948 -0.0972,-0.9668 -0.0747,-1.48859 0.0224,-0.5218 0.0918,-1.05807 0.2066,-1.57544 0.1148,-0.51737 0.27506,-1.01585 0.47934,-1.46205 0.21778,-0.47569 0.53644,-0.98422 0.93508,-1.50517 0.39865,-0.52094 0.87728,-1.05432 1.41501,-1.57971 0.53773,-0.52539 1.13456,-1.04279 1.76961,-1.5318 0.63504,-0.48901 1.30829,-0.94962 1.99887,-1.36143 0.90615,-0.540363 2.0026,-1.09893 3.1585,-1.627576 1.15589,-0.528645 2.37121,-1.027369 3.51512,-1.448046 1.1439,-0.420676 2.21638,-0.763305 3.08656,-0.979761 0.87019,-0.216455 1.53809,-0.306737 1.87284,-0.22272 0.11503,0.02887 0.21668,0.04036 0.3113,0.03024 0.0946,-0.01011 0.18221,-0.04182 0.26915,-0.09934 0.0869,-0.05752 0.17322,-0.140847 0.2652,-0.254195 0.092,-0.113348 0.18968,-0.256716 0.29944,-0.434316 0.22532,-0.36457 0.47264,-0.731063 0.72652,-1.081139 0.25389,-0.350076 0.51435,-0.683735 0.76593,-0.982639 0.25159,-0.298904 0.49431,-0.563052 0.71273,-0.774105 0.21841,-0.211054 0.41252,-0.369012 0.56689,-0.455537 0.26399,-0.147969 0.55021,-0.247782 0.84581,-0.301064 0.29561,-0.05328 0.6006,-0.06003 0.90216,-0.02187 0.30156,0.03816 0.59967,0.121227 0.88153,0.247581 0.28185,0.126354 0.54743,0.295993 0.78392,0.507295 0.18799,0.167966 0.33595,0.310571 0.45208,0.447381 0.11613,0.136811 0.20044,0.267826 0.26112,0.412614 0.0607,0.144788 0.0977,0.303347 0.11935,0.495246 0.0216,0.191899 0.0278,0.417136 0.0268,0.695279 -0.001,0.273236 -0.0119,0.502957 -0.0427,0.713282 -0.0308,0.210325 -0.0813,0.401254 -0.16162,0.596903 -0.0803,0.19565 -0.19031,0.396021 -0.33995,0.625232 -0.14963,0.229211 -0.33888,0.487261 -0.57764,0.798269 -0.28557,0.371972 -0.5481,0.763327 -0.78128,1.159347 -0.23318,0.396021 -0.437,0.796707 -0.60512,1.18734 -0.16812,0.390637 -0.30054,0.771217 -0.39094,1.127027 -0.0904,0.35581 -0.13876,0.68686 -0.13876,0.97841 0,0.0966 0.0312,0.22359 0.0892,0.37343 0.058,0.14985 0.14283,0.32253 0.25019,0.5105 0.10735,0.18796 0.23722,0.3912 0.38529,0.60216 0.14806,0.21095 0.31432,0.42961 0.49446,0.64842 0.79638,0.96735 1.4437,1.96324 1.94261,2.99117 0.49892,1.02793 0.84942,2.08789 1.05215,3.1834 0.20274,1.0955 0.25771,2.22654 0.16557,3.39663 -0.0921,1.17008 -0.33139,2.37921 -0.71711,3.63088 -0.2622,0.85085 -0.5115,1.55851 -0.76428,2.14461 -0.25277,0.5861 -0.50903,1.05064 -0.78515,1.41525 -0.27613,0.36462 -0.57211,0.62931 -0.90435,0.81572 -0.33224,0.1864 -0.70073,0.29452 -1.12185,0.34599 -0.17776,0.0217 -0.34511,0.0308 -0.50508,0.0266 -0.15997,-0.004 -0.31256,-0.0218 -0.46081,-0.0532 -0.14824,-0.0315 -0.29215,-0.0769 -0.43475,-0.1369 -0.1426,-0.06 -0.28389,-0.1346 -0.42692,-0.22443 z m 18.78004,-1.47394 c -0.33009,-0.33009 -0.57172,-0.65816 -0.72419,-0.99381 -0.15246,-0.33565 -0.21575,-0.67887 -0.18917,-1.03928 0.0266,-0.36041 0.14305,-0.738 0.3501,-1.14237 0.20705,-0.40437 0.50468,-0.83553 0.89361,-1.30307 0.2923,-0.35139 0.47462,-0.73861 0.55256,-1.14285 0.0779,-0.40424 0.0515,-0.82549 -0.0737,-1.24495 -0.1252,-0.41945 -0.34915,-0.83711 -0.66624,-1.23414 -0.3171,-0.39704 -0.72733,-0.77346 -1.22509,-1.11044 -1.04052,-0.70443 -1.94866,-1.46473 -2.73191,-2.29447 -0.78325,-0.82974 -1.4416,-1.72892 -1.98254,-2.71113 -0.54093,-0.98221 -0.96445,-2.04744 -1.27803,-3.20927 -0.31357,-1.16183 -0.51721,-2.42026 -0.61839,-3.788864 -0.0389,-0.526632 -0.0675,-0.924422 -0.0761,-1.238799 -0.009,-0.314377 0.003,-0.545343 0.0442,-0.738327 0.0412,-0.192984 0.11222,-0.347987 0.22266,-0.51044 0.11044,-0.162453 0.26033,-0.332356 0.45939,-0.55514 0.17959,-0.200991 0.32919,-0.358019 0.47117,-0.480504 0.14199,-0.122485 0.27635,-0.210428 0.42544,-0.273246 0.14909,-0.06282 0.31292,-0.100513 0.51383,-0.122503 0.20091,-0.02199 0.43892,-0.02827 0.73636,-0.02827 0.51339,0 0.93595,0.04642 1.2882,0.164658 0.35226,0.118236 0.63421,0.308285 0.86638,0.595538 0.23216,0.287253 0.41454,0.67171 0.56766,1.178761 0.15312,0.507051 0.27698,1.136697 0.3921,1.914327 0.0914,0.617113 0.20317,1.203226 0.33241,1.749714 0.12924,0.54649 0.27592,1.05335 0.43699,1.51197 0.16107,0.45862 0.33655,0.86898 0.52339,1.22248 0.18685,0.3535 0.38507,0.65013 0.59163,0.88126 0.0623,0.0697 0.17437,0.17526 0.32356,0.30635 0.14919,0.1311 0.33548,0.28772 0.54616,0.45949 0.21068,0.17178 0.44574,0.35871 0.69248,0.55044 0.24674,0.19172 0.50515,0.38824 0.76253,0.57918 0.74418,0.55209 1.38789,1.12765 1.93485,1.73371 0.54696,0.60606 0.99717,1.24261 1.35437,1.91668 0.35719,0.67407 0.62136,1.38566 0.79623,2.14181 0.17488,0.75614 0.26045,1.55684 0.26045,2.40911 0,0.57069 -0.04,1.10242 -0.12291,1.6028 -0.0829,0.50037 -0.20874,0.96938 -0.38042,1.41463 -0.17168,0.44524 -0.3892,0.86671 -0.6555,1.272 -0.26629,0.40528 -0.58136,0.79439 -0.94813,1.17491 -0.28475,0.29543 -0.51051,0.52325 -0.7072,0.69879 -0.19669,0.17555 -0.36432,0.29883 -0.53283,0.38517 -0.16851,0.0863 -0.33789,0.13577 -0.53808,0.1636 -0.2002,0.0278 -0.4312,0.0341 -0.72296,0.0341 -0.27167,0 -0.49456,-0.008 -0.68816,-0.0319 -0.1936,-0.024 -0.3579,-0.064 -0.51237,-0.12822 -0.15448,-0.0642 -0.29913,-0.15249 -0.45344,-0.27302 -0.1543,-0.12054 -0.31826,-0.27331 -0.51134,-0.46639 z m 10.29225,-9.38268 c -0.71124,-0.24575 -1.35414,-0.54222 -1.94472,-0.90581 -0.59058,-0.36358 -1.12883,-0.79428 -1.63077,-1.3085 -0.50193,-0.51422 -0.96756,-1.11195 -1.41288,-1.80962 -0.44533,-0.69766 -0.87035,-1.49524 -1.29108,-2.40915 -0.32684,-0.70996 -0.637,-1.46797 -0.91539,-2.22167 -0.27838,-0.7537 -0.52499,-1.5031 -0.72473,-2.195825 -0.19974,-0.692726 -0.3526,-1.328785 -0.44349,-1.855816 -0.0909,-0.527031 -0.11982,-0.945035 -0.0717,-1.201653 0.0598,-0.318723 0.18185,-0.623639 0.35153,-0.902262 0.16969,-0.278624 0.387,-0.530954 0.6373,-0.744505 0.25031,-0.213552 0.5336,-0.388323 0.83526,-0.51183 0.30165,-0.123506 0.62166,-0.195746 0.9454,-0.204235 0.45442,-0.01192 0.83107,0.02117 1.15944,0.133799 0.32837,0.112632 0.60845,0.304814 0.86972,0.611097 0.26127,0.306282 0.50372,0.726666 0.75683,1.295703 0.25311,0.569037 0.51688,1.286728 0.82079,2.187623 0.29413,0.871903 0.57854,1.647884 0.8551,2.331484 0.27656,0.68359 0.54526,1.27482 0.80797,1.77721 0.2627,0.50239 0.5194,0.91595 0.77196,1.24423 0.25256,0.32828 0.50097,0.57128 0.7471,0.73255 0.20807,0.13633 0.53403,0.25192 0.93448,0.34336 0.40044,0.0914 0.87537,0.15872 1.38139,0.19845 0.50602,0.0397 1.04312,0.0519 1.5679,0.0331 0.52478,-0.0188 1.03724,-0.0686 1.49398,-0.1527 0.66643,-0.12277 1.26635,-0.15068 1.79135,-0.0891 0.52501,0.0616 0.9751,0.21262 1.34189,0.44778 0.36679,0.23515 0.65027,0.5544 0.84206,0.95238 0.19179,0.39797 0.29188,0.87466 0.29188,1.42469 0,0.39997 -0.0571,0.7644 -0.1702,1.09194 -0.11306,0.32754 -0.28205,0.61818 -0.50575,0.87056 -0.2237,0.25239 -0.50212,0.46651 -0.83404,0.641 -0.33192,0.17449 -0.71734,0.30936 -1.15506,0.40323 -0.5329,0.11428 -1.20584,0.193 -1.94051,0.23815 -0.73466,0.0452 -1.53104,0.0567 -2.31079,0.0368 -0.77975,-0.02 -1.54287,-0.0715 -2.21102,-0.15256 -0.66816,-0.0811 -1.24134,-0.1917 -1.64122,-0.32987 z m 11.56234,-11.966734 c -0.61906,-0.09255 -1.27023,-0.277396 -1.93679,-0.544223 -0.66657,-0.266828 -1.34852,-0.615633 -2.02915,-1.036086 -0.68063,-0.420453 -1.35994,-0.912554 -2.02119,-1.465976 -0.66126,-0.553421 -1.30447,-1.168162 -1.91291,-1.833895 -0.51243,-0.560677 -0.94242,-1.067389 -1.29645,-1.532347 -0.35403,-0.464958 -0.6321,-0.888164 -0.84068,-1.28183 -0.20858,-0.393666 -0.34766,-0.757793 -0.42373,-1.104594 -0.0761,-0.3468 -0.0891,-0.676275 -0.0456,-1.000637 0.0896,-0.668365 0.3543,-1.221905 0.72631,-1.642711 0.37201,-0.420805 0.85138,-0.708876 1.37046,-0.846303 0.51909,-0.137428 1.07789,-0.124211 1.60875,0.05756 0.53087,0.181769 1.0338,0.532091 1.44115,1.068875 0.65215,0.859363 1.30044,1.623944 1.93657,2.287493 0.63614,0.663549 1.26013,1.226067 1.86368,1.681304 0.60356,0.455236 1.18668,0.803192 1.74108,1.037617 0.55439,0.234425 1.08008,0.35532 1.56875,0.356434 0.47191,0.0011 0.91135,0.105666 1.29959,0.291051 0.38824,0.185385 0.72528,0.451566 0.99242,0.775826 0.26713,0.324259 0.46436,0.706596 0.57296,1.124295 0.1086,0.417698 0.12857,0.870757 0.0412,1.336459 -0.0829,0.441875 -0.25791,0.828333 -0.51317,1.15358 -0.25525,0.325247 -0.59075,0.589283 -0.99462,0.786315 -0.40387,0.197031 -0.87611,0.327059 -1.40484,0.384289 -0.52873,0.05723 -1.11396,0.04166 -1.7438,-0.05249 z m -31.93132,-3.792533 c -0.3015,-0.134821 -0.55144,-0.295745 -0.7643,-0.519164 -0.21287,-0.22342 -0.38866,-0.509334 -0.54187,-0.894136 -0.1532,-0.384802 -0.28383,-0.868492 -0.40636,-1.487462 -0.12253,-0.61897 -0.23697,-1.373219 -0.3578,-2.299142 -0.10702,-0.8201 -0.20171,-1.494037 -0.28353,-2.01969 -0.0818,-0.525653 -0.1508,-0.903022 -0.20639,-1.129987 -0.0556,-0.226964 -0.0978,-0.303523 -0.12612,-0.227556 -0.0283,0.07597 -0.0427,0.30446 -0.0427,0.6876 0,0.278087 -0.0692,0.565963 -0.19126,0.844759 -0.12202,0.278796 -0.2968,0.548511 -0.50788,0.790274 -0.21108,0.241763 -0.45845,0.455574 -0.72564,0.622561 -0.26719,0.166987 -0.55419,0.287151 -0.84454,0.34162 -0.45207,0.08481 -0.89966,0.05886 -1.31688,-0.05648 -0.41722,-0.115343 -0.80408,-0.320084 -1.13468,-0.592866 -0.3306,-0.272783 -0.60495,-0.613607 -0.79717,-1.001117 -0.19222,-0.387509 -0.30231,-0.821704 -0.30438,-1.281229 -0.004,-0.879237 -0.47767,-2.080369 -1.32877,-3.497089 -0.85109,-1.41672 -2.07958,-3.049027 -3.59305,-4.790615 -1.51348,-1.741588 -3.31195,-3.592456 -5.30304,-5.446297 -1.99109,-1.853841 -4.17479,-3.710655 -6.45871,-5.464134 -1.97876,-1.519188 -3.59472,-2.791712 -4.93506,-3.905579 -1.34034,-1.113866 -2.40507,-2.069074 -3.28137,-2.953627 -0.87629,-0.884553 -1.56415,-1.698451 -2.15076,-2.529699 -0.58661,-0.831247 -1.07197,-1.679844 -1.54326,-2.633794 -0.63574,-1.286825 -1.16413,-2.725057 -1.58708,-4.332299 -0.42295,-1.607241 -0.74046,-3.383492 -0.95445,-5.346354 -0.214,-1.962862 -0.32447,-4.112337 -0.33335,-6.466025 -0.009,-2.353688 0.0839,-4.91159 0.27625,-7.691309 0.0452,-0.653782 0.0951,-1.261069 0.14817,-1.811425 0.0531,-0.550357 0.10929,-1.043784 0.1673,-1.469848 0.058,-0.426065 0.11779,-0.784766 0.17792,-1.065672 0.0601,-0.280905 0.12061,-0.484015 0.18002,-0.598895 0.22005,-0.425527 0.54454,-0.759688 0.92723,-0.998128 0.38269,-0.23844 0.82358,-0.381159 1.27641,-0.423801 0.45283,-0.04264 0.9176,0.01479 1.34807,0.176657 0.43048,0.161866 0.82664,0.428164 1.14226,0.803248 l 0.16584,0.197091 0.16584,0.197092 0.16584,0.197091 0.16584,0.197091 -0.0399,2.075538 -0.0399,2.075539 -0.0399,2.075538 -0.0399,2.075538 c -0.0437,2.26913 -0.0642,4.134758 -0.0529,5.712474 0.0113,1.577717 0.0543,2.867522 0.13781,3.985007 0.0835,1.117486 0.20738,2.062651 0.38034,2.951089 0.17295,0.888437 0.39496,1.720146 0.67467,2.610718 0.31222,0.994122 0.66221,1.869353 1.1241,2.708631 0.46188,0.839279 1.03565,1.642605 1.79541,2.49292 0.75977,0.850315 1.70553,1.747618 2.91138,2.774849 1.20586,1.027232 2.67182,2.184391 4.47199,3.554419 2.23979,1.704608 4.32653,3.416557 6.24348,5.118028 1.91695,1.70147 3.66411,3.392461 5.22476,5.055151 1.56065,1.662691 2.93479,3.297081 4.10569,4.88535 1.17089,1.588268 2.13855,3.130416 2.88624,4.60862 0.17496,0.345904 0.33796,0.657481 0.48283,0.924591 0.14486,0.267111 0.27159,0.489755 0.374,0.657792 0.10241,0.168037 0.1805,0.281467 0.22809,0.330151 0.0476,0.04868 0.0647,0.03262 0.0451,-0.05833 -0.0196,-0.09095 -0.0498,-0.241019 -0.0875,-0.434289 -0.0378,-0.19327 -0.0831,-0.429741 -0.13302,-0.693498 -0.0499,-0.263756 -0.1044,-0.554798 -0.16045,-0.857208 -0.056,-0.302411 -0.11366,-0.61619 -0.16981,-0.925422 -0.33699,-1.855804 -0.75243,-3.580175 -1.24262,-5.16557 -0.49019,-1.585395 -1.05515,-3.031813 -1.69116,-4.331714 -0.63602,-1.2999 -1.3431,-2.453282 -2.11757,-3.452603 -0.77446,-0.999321 -1.6163,-1.844581 -2.52182,-2.528238 -1.25956,-0.950946 -2.3682,-1.896962 -3.36457,-2.892886 -0.99636,-0.995925 -1.88044,-2.041758 -2.69085,-3.192338 -0.81042,-1.15058 -1.54718,-2.405907 -2.24891,-3.82082 -0.70172,-1.414912 -1.36842,-2.98941 -2.0387,-4.778331 -0.38534,-1.028433 -0.74429,-1.855141 -1.11592,-2.511057 -0.37163,-0.655916 -0.75594,-1.14104 -1.192,-1.486306 -0.43606,-0.345266 -0.92387,-0.550674 -1.50249,-0.647158 -0.57862,-0.09648 -1.24806,-0.08404 -2.04738,0.0064 -0.75085,0.08495 -1.34793,0.145672 -1.83229,0.178564 -0.48436,0.03289 -0.85599,0.03795 -1.15594,0.01157 -0.29994,-0.02638 -0.52819,-0.0842 -0.72579,-0.177079 -0.1976,-0.09287 -0.36454,-0.220799 -0.54186,-0.387384 -0.2527,-0.237394 -0.46131,-0.490439 -0.62461,-0.754344 -0.16331,-0.263906 -0.28132,-0.538672 -0.3528,-0.819511 -0.0715,-0.280838 -0.0964,-0.567748 -0.0736,-0.855941 0.0228,-0.288192 0.0933,-0.577668 0.21279,-0.863636 0.12813,-0.306663 0.29636,-0.578922 0.51217,-0.821163 0.21581,-0.242242 0.4792,-0.454467 0.79766,-0.641063 0.31846,-0.186596 0.692,-0.347564 1.12809,-0.48729 0.4361,-0.139727 0.93475,-0.258213 1.50346,-0.359846 1.06532,-0.190384 2.15495,-0.209453 3.22121,-0.0775 1.06626,0.131957 2.10916,0.41494 3.08104,0.828659 0.97187,0.413719 1.87272,0.958174 2.65489,1.613076 0.78217,0.654903 1.44565,1.420252 1.94278,2.27576 0.0863,0.148564 0.19798,0.368509 0.32583,0.638735 0.12785,0.270226 0.2719,0.590732 0.42302,0.940417 0.15113,0.349684 0.30934,0.728548 0.46551,1.115488 0.15617,0.38694 0.3103,0.781957 0.45327,1.163949 0.52994,1.41591 1.02887,2.636553 1.52908,3.712421 0.50021,1.075867 1.0017,2.006959 1.53675,2.843769 0.53505,0.836809 1.10366,1.579336 1.73813,2.278072 0.63446,0.698736 1.33477,1.353682 2.13321,2.01533 1.14449,0.948412 2.09563,1.774305 2.91223,2.550341 0.81661,0.776036 1.49868,1.502214 2.10504,2.251196 0.60636,0.748981 1.13702,1.520765 1.65079,2.388013 0.51377,0.867248 1.01065,1.829959 1.54948,2.960795 0.27519,0.577538 0.53754,1.192213 0.79185,1.859592 0.25431,0.667379 0.50058,1.387463 0.7436,2.175818 0.24303,0.788355 0.48282,1.644982 0.72416,2.585449 0.24135,0.940467 0.48425,1.964773 0.73351,3.088487 0.0207,0.09337 0.0599,0.192905 0.113,0.292859 0.0531,0.09996 0.1201,0.200332 0.19639,0.295396 0.0763,0.09506 0.16188,0.184813 0.25215,0.263512 0.0903,0.0787 0.18522,0.146349 0.28026,0.197211 0.35088,0.187786 0.62213,0.371972 0.82841,0.631189 0.20629,0.259217 0.3476,0.593465 0.43862,1.081372 0.091,0.487908 0.13173,1.129476 0.13682,2.003334 0.005,0.873859 -0.0254,1.980007 -0.0769,3.397076 -0.0302,0.831045 -0.0649,1.587488 -0.10361,2.263305 -0.0387,0.675816 -0.0814,1.271006 -0.12743,1.779545 -0.0461,0.508539 -0.0956,0.930428 -0.14797,1.25964 -0.0524,0.329212 -0.10765,0.565749 -0.16524,0.703586 -0.16051,0.384149 -0.39646,0.717573 -0.68402,0.990929 -0.28756,0.273356 -0.62673,0.486643 -0.99369,0.630519 -0.36695,0.143875 -0.76168,0.218338 -1.16035,0.214044 -0.39868,-0.0043 -0.80131,-0.08734 -1.18405,-0.258493 z m -16.69666,-2.537129 c -0.12448,-0.0759 -0.27567,-0.201817 -0.44396,-0.366305 -0.16829,-0.164488 -0.35369,-0.367544 -0.54658,-0.597711 -0.1929,-0.230167 -0.3933,-0.487445 -0.5916,-0.760377 -0.1983,-0.272933 -0.3945,-0.56152 -0.579,-0.854305 -0.46348,-0.735495 -0.85989,-1.345496 -1.21483,-1.860592 -0.35493,-0.515095 -0.66838,-0.935283 -0.96591,-1.291153 -0.29754,-0.355869 -0.57917,-0.64742 -0.87046,-0.905238 -0.29129,-0.257819 -0.59225,-0.481906 -0.92844,-0.702848 -0.37959,-0.249465 -0.77485,-0.472445 -1.19586,-0.672219 -0.42101,-0.199774 -0.86778,-0.376341 -1.3504,-0.532979 -0.48263,-0.156638 -1.00112,-0.293347 -1.56556,-0.413405 -0.56444,-0.120057 -1.17484,-0.223463 -1.8413,-0.313496 -1.07963,-0.145849 -2.02218,-0.361691 -2.86443,-0.677023 -0.84226,-0.315332 -1.58423,-0.730153 -2.2627,-1.273959 -0.67848,-0.543805 -1.29347,-1.216595 -1.88177,-2.047865 -0.5883,-0.83127 -1.14991,-1.82102 -1.72163,-2.998744 -0.19427,-0.400182 -0.41515,-0.886353 -0.64802,-1.422341 -0.23288,-0.535988 -0.47775,-1.121792 -0.72,-1.721239 -0.24225,-0.599447 -0.48187,-1.212536 -0.70426,-1.803095 -0.22238,-0.590558 -0.42753,-1.158586 -0.60081,-1.667909 -0.35012,-1.02909 -0.61339,-1.836656 -0.79105,-2.489434 -0.17766,-0.652777 -0.26972,-1.150767 -0.27742,-1.560705 -0.008,-0.409937 0.0689,-0.731822 0.22867,-1.032392 0.15974,-0.300569 0.40257,-0.579822 0.72724,-0.904495 0.21608,-0.216085 0.46082,-0.387516 0.72536,-0.513291 0.26455,-0.125775 0.54891,-0.205895 0.84425,-0.239358 0.29534,-0.03346 0.60166,-0.02027 0.91013,0.04058 0.30846,0.06085 0.61908,0.169358 0.923,0.326524 0.22676,0.117262 0.4057,0.223053 0.57249,0.38909 0.16679,0.166038 0.32142,0.392322 0.49955,0.750574 0.17814,0.358251 0.37978,0.84847 0.64059,1.542374 0.26081,0.693905 0.58079,1.591496 0.99559,2.764492 0.37988,1.074226 0.75276,2.060693 1.11286,2.947517 0.36011,0.886824 0.70743,1.674006 1.0362,2.349661 0.32877,0.675656 0.63897,1.239786 0.92484,1.680505 0.28586,0.44072 0.54738,0.75803 0.77878,0.940047 0.0931,0.0732 0.23277,0.148101 0.41054,0.222245 0.17777,0.07414 0.39359,0.14753 0.63886,0.217698 0.24527,0.07017 0.52,0.137115 0.81556,0.198383 0.29557,0.06127 0.61199,0.116855 0.94065,0.164301 0.64347,0.09289 1.31993,0.223946 1.99876,0.383467 0.67883,0.159522 1.36004,0.347512 2.01301,0.554277 0.65297,0.206765 1.27771,0.432306 1.8436,0.666928 0.56589,0.234622 1.07293,0.478327 1.49052,0.72142 0.41441,0.241247 0.85846,0.551966 1.3092,0.909821 0.45074,0.357856 0.90819,0.762848 1.34941,1.192641 0.44121,0.429793 0.8662,0.884387 1.25203,1.341446 0.38583,0.457058 0.7325,0.916582 1.01708,1.356235 0.13205,0.203998 0.28691,0.442674 0.45374,0.699369 0.16682,0.256695 0.34561,0.531408 0.52551,0.807481 0.17989,0.276073 0.3609,0.553504 0.53215,0.815636 0.17126,0.262131 0.33276,0.508963 0.47366,0.723834 0.38284,0.583843 0.65785,1.130097 0.82527,1.636443 0.16742,0.506345 0.22725,0.972782 0.17976,1.396991 -0.0475,0.424208 -0.20229,0.806189 -0.46417,1.143621 -0.26187,0.337433 -0.63082,0.630318 -1.10656,0.876335 -0.258,0.13342 -0.50033,0.231132 -0.73492,0.292753 -0.23458,0.06162 -0.46144,0.08715 -0.68852,0.07621 -0.22708,-0.01094 -0.45437,-0.05836 -0.68984,-0.142637 -0.23546,-0.08428 -0.4791,-0.205408 -0.73886,-0.363782 z m 26.0061,-11.361265 c -0.0728,-0.0301 -0.16082,-0.07884 -0.25766,-0.141144 -0.0968,-0.0623 -0.20247,-0.138168 -0.31037,-0.222502 -0.1079,-0.08434 -0.21807,-0.17714 -0.32401,-0.273326 -0.10593,-0.09619 -0.20763,-0.195755 -0.29858,-0.293615 -0.22081,-0.237588 -0.38884,-0.527026 -0.50352,-0.841561 -0.11467,-0.314534 -0.17598,-0.654165 -0.18335,-0.992139 -0.007,-0.337973 0.0392,-0.674289 0.1403,-0.982193 0.1011,-0.307904 0.25673,-0.587397 0.46747,-0.811724 0.32536,-0.346335 0.65835,-0.894794 0.97482,-1.567015 0.31647,-0.672221 0.61641,-1.468204 0.87568,-2.309587 0.25927,-0.841382 0.47788,-1.728163 0.63166,-2.581981 0.15378,-0.853818 0.24275,-1.674672 0.24275,-2.3842 0,-0.39833 -0.003,-0.705743 -0.0282,-0.967788 -0.0248,-0.262045 -0.071,-0.478722 -0.1566,-0.695582 -0.0856,-0.216859 -0.21053,-0.433901 -0.39282,-0.696676 -0.1823,-0.262774 -0.42194,-0.57128 -0.7369,-0.971069 -0.87365,-1.108946 -1.58748,-2.069267 -2.16255,-2.927167 -0.57508,-0.8579 -1.01139,-1.613378 -1.32999,-2.312639 -0.3186,-0.69926 -0.51949,-1.342303 -0.62372,-1.975331 -0.10423,-0.633028 -0.11181,-1.256042 -0.0438,-1.915245 0.0502,-0.486061 0.13205,-0.93403 0.2448,-1.342285 0.11275,-0.408255 0.25637,-0.776796 0.42998,-1.104 0.17361,-0.327204 0.37723,-0.613071 0.60998,-0.85598 0.23276,-0.242909 0.49465,-0.442859 0.78483,-0.598227 0.21258,-0.113819 0.38682,-0.200505 0.54385,-0.261942 0.15704,-0.06144 0.29687,-0.09762 0.44063,-0.110447 0.14376,-0.01282 0.29144,-0.0023 0.46418,0.02974 0.17274,0.03202 0.37053,0.08552 0.61451,0.158622 0.43846,0.131365 0.81796,0.341694 1.12977,0.611718 0.31181,0.270024 0.55593,0.599742 0.72363,0.969885 0.1677,0.370143 0.25898,0.78071 0.26511,1.212432 0.006,0.431722 -0.0729,0.884599 -0.24579,1.33936 -0.0919,0.241786 -0.13162,0.483223 -0.10577,0.751655 0.0258,0.268432 0.11725,0.563861 0.2875,0.913631 0.17025,0.349771 0.41935,0.753883 0.76062,1.239683 0.34127,0.485799 0.7747,1.053287 1.31361,1.729808 0.66041,0.829053 1.18776,1.529372 1.60692,2.161949 0.41916,0.632577 0.73013,1.197413 0.9578,1.755499 0.22768,0.558087 0.37204,1.109424 0.45799,1.715005 0.0859,0.60558 0.11347,1.265404 0.10745,2.040464 -0.005,0.680651 -0.048,1.381459 -0.12748,2.098398 -0.0794,0.716939 -0.19555,1.450008 -0.34751,2.195179 -0.15195,0.745171 -0.33976,1.502444 -0.56258,2.26779 -0.22283,0.765346 -0.48068,1.538766 -0.77273,2.316232 -0.22448,0.597598 -0.45248,1.130225 -0.68751,1.602867 -0.23503,0.472641 -0.47709,0.885298 -0.72971,1.242955 -0.25262,0.357656 -0.51579,0.660313 -0.79303,0.912956 -0.27725,0.252642 -0.56857,0.45527 -0.87749,0.612869 -0.26724,0.136337 -0.50302,0.242257 -0.71948,0.319018 -0.21645,0.07676 -0.4136,0.124366 -0.60358,0.144074 -0.18998,0.01971 -0.3728,0.01152 -0.5606,-0.02331 -0.1878,-0.03482 -0.3806,-0.09628 -0.59053,-0.18312 h 0 1e-5 0 z"
       id="path895"
       sodipodi:nodetypes="ccccccccccccccccccccccccccccccccccccccccccccccccccccccccccccccccccccccccccccccccccccccccccccccccccccccccccccccccccccccccccccccccccccccccccccccccccccccccccccccccccccccccccccccccccccccccccccccccccccccccccccccccccccccccccccccccccccccccccccccccccccccccccccccccccccccccccccccccccccccccccccccccccccccccccccccccccccccccccccccccccccccccccccccccccccccccccccccccccccccccccccccccccccccccccccccccccccccccccccccccccccccccccccccccccccccccccccccccccccccccccccccc" />
  </g>
</svg>
